<?xml version="1.0" encoding="UTF-8" standalone="no"?>
<!DOCTYPE svg PUBLIC "-//W3C//DTD SVG 1.1//EN" "http://www.w3.org/Graphics/SVG/1.1/DTD/svg11.dtd">
<svg width="100%" height="100%" viewBox="0 0 12763 3719" version="1.1" xmlns="http://www.w3.org/2000/svg" xmlns:xlink="http://www.w3.org/1999/xlink" xml:space="preserve" xmlns:serif="http://www.serif.com/" style="fill-rule:evenodd;clip-rule:evenodd;stroke-linejoin:round;stroke-miterlimit:2;">
    <g transform="matrix(1.33333,0,0,1.33333,-563.176,-640.875)">
        <g transform="matrix(4.16667,0,0,4.16667,530.85,1719.58)">
            <path d="M0,-234.605L54.078,-234.605C55.319,-234.605 56.165,-233.349 55.704,-232.198C53.969,-227.867 52.259,-223.769 50.797,-219.585C40.463,-190.003 40.598,-160.422 53.159,-131.705C57.933,-120.79 64.865,-110.464 72.444,-101.203C89.729,-80.083 112.116,-66.63 138.369,-58.556C163.052,-50.966 187.66,-50.672 212.26,-56.331C231.14,-60.675 248.838,-68.867 264.222,-80.898C288.734,-100.066 305.871,-124.422 311.613,-155.406C316.359,-181.009 313.441,-206.026 301.966,-229.731C301.624,-230.438 301.323,-231.166 300.997,-231.982C300.538,-233.132 301.386,-234.386 302.624,-234.386L355.757,-234.386C356.46,-234.386 357.102,-233.967 357.376,-233.32C362.428,-221.377 364.798,-208.397 366.282,-195.272C369.739,-164.701 364.767,-135.318 351.924,-107.49C347.292,-97.453 341.355,-87.839 334.837,-78.89C322.115,-61.423 306.376,-47.091 288.137,-35.207C269.82,-23.272 250.227,-15.07 229.295,-8.988C198.365,0 167.394,-0.306 136.381,-6.728C123.542,-9.387 110.79,-13.58 98.77,-18.837C78.386,-27.752 59.29,-39.433 43.466,-55.145C4.836,-93.501 -14.576,-139.573 -8.714,-194.638C-7.333,-207.611 -4.151,-220.392 -1.715,-233.183C-1.558,-234.009 -0.84,-234.605 0,-234.605ZM177.562,81.766C178.258,82.755 179.728,82.759 180.428,81.774C198.295,56.622 215.816,31.935 233.378,7.277C235.563,4.208 237.537,-0.609 240.388,-1.273C246.248,-2.64 252.645,-1.93 258.797,-1.609C259.913,-1.551 261.335,0.56 261.903,2.004C272.31,28.484 282.588,55.014 292.937,81.517C300.073,99.792 307.291,118.036 314.445,136.304C326.924,168.172 339.335,200.067 351.862,231.916C361.023,255.206 370.331,278.438 379.547,301.707C380.196,303.345 380.752,305.021 381.37,306.862C381.752,307.997 380.907,309.172 379.71,309.172L317.265,309.172C316.47,309.172 315.774,308.636 315.571,307.867C292.901,221.918 270.204,135.867 247.146,48.45C246.747,46.934 244.707,46.664 243.929,48.025C240.206,54.533 236.893,60.221 233.768,66.01C226.196,80.032 218.834,94.167 211.255,108.185C205.124,119.525 198.882,130.808 192.463,141.987C191.626,143.445 189.553,144.672 187.845,145.039C185.447,145.554 182.855,145.16 180.346,145.159C164.687,145.152 164.958,145.018 158.16,131.285C150.836,116.488 142.974,101.957 135.275,87.347C128.375,74.255 121.384,61.21 114.414,48.155C114.409,48.147 114.405,48.139 114.401,48.131C113.66,46.757 111.601,47.028 111.186,48.533C87.179,135.577 63.439,221.651 39.645,307.923C39.435,308.683 38.744,309.209 37.956,309.209L-24.281,309.209C-25.511,309.209 -26.355,307.973 -25.914,306.825C-23.772,301.248 -21.77,295.916 -19.628,290.641C-6.809,259.065 6.131,227.538 18.885,195.936C36.463,152.383 53.897,108.772 71.426,65.2C79.832,44.305 88.235,23.408 96.914,2.626C97.632,0.908 100.452,0.064 102.309,-1.166C102.444,-1.256 102.688,-1.176 102.881,-1.181C121.122,-1.633 121.002,-1.557 132.31,16.183C138.596,26.043 145.269,35.662 151.93,45.276C160.304,57.364 168.821,69.352 177.562,81.766Z"/>
        </g>
        <g transform="matrix(0,4.16667,4.16667,0,3878.98,1875)">
            <path d="M-334.643,-334.643L334.643,-334.643" style="fill:none;fill-rule:nonzero;"/>
        </g>
        <g transform="matrix(0,4.16667,4.16667,0,3878.98,1875)">
            <rect x="-334.643" y="-359.642" width="669.285" height="50"/>
        </g>
        <g transform="matrix(64.1696,0,0,64.1696,-357586,-113487)">
            <g transform="matrix(50,0,0,50,5615.21,1814.93)">
                <path d="M0.196,0.01C0.302,0.01 0.358,-0.054 0.358,-0.162L0.358,-0.261L0.254,-0.261L0.254,-0.154C0.254,-0.108 0.232,-0.09 0.199,-0.09C0.166,-0.09 0.144,-0.108 0.144,-0.154L0.144,-0.545C0.144,-0.591 0.166,-0.61 0.199,-0.61C0.232,-0.61 0.254,-0.591 0.254,-0.545L0.254,-0.464L0.358,-0.464L0.358,-0.538C0.358,-0.646 0.302,-0.71 0.196,-0.71C0.09,-0.71 0.034,-0.646 0.034,-0.538L0.034,-0.162C0.034,-0.054 0.09,0.01 0.196,0.01Z" style="fill-rule:nonzero;"/>
            </g>
            <g transform="matrix(50,0,0,50,5634.36,1814.93)">
                <path d="M0.201,0.01C0.309,0.01 0.365,-0.054 0.365,-0.166L0.365,-0.7L0.259,-0.7L0.259,-0.158C0.259,-0.108 0.238,-0.09 0.203,-0.09C0.168,-0.09 0.147,-0.108 0.147,-0.158L0.147,-0.7L0.037,-0.7L0.037,-0.166C0.037,-0.054 0.093,0.01 0.201,0.01Z" style="fill-rule:nonzero;"/>
            </g>
            <g transform="matrix(50,0,0,50,5654.46,1814.93)">
                <path d="M0.041,-0L0.151,-0L0.151,-0.3L0.189,-0.3C0.239,-0.3 0.258,-0.279 0.258,-0.214L0.258,-0.086C0.258,-0.029 0.262,-0.018 0.268,-0L0.38,-0C0.369,-0.026 0.368,-0.051 0.368,-0.085L0.368,-0.208C0.368,-0.287 0.35,-0.339 0.295,-0.356L0.295,-0.358C0.344,-0.378 0.367,-0.424 0.367,-0.496L0.367,-0.539C0.367,-0.647 0.318,-0.7 0.204,-0.7L0.041,-0.7L0.041,-0ZM0.151,-0.4L0.151,-0.6L0.201,-0.6C0.24,-0.6 0.257,-0.578 0.257,-0.528L0.257,-0.474C0.257,-0.418 0.232,-0.4 0.191,-0.4L0.151,-0.4Z" style="fill-rule:nonzero;"/>
            </g>
            <g transform="matrix(50,0,0,50,5674.51,1814.93)">
                <path d="M0.127,-0L0.237,-0L0.237,-0.6L0.352,-0.6L0.352,-0.7L0.012,-0.7L0.012,-0.6L0.127,-0.6L0.127,-0Z" style="fill-rule:nonzero;"/>
            </g>
            <g transform="matrix(50,0,0,50,5692.71,1814.93)">
                <rect x="0.041" y="-0.7" width="0.11" height="0.7" style="fill-rule:nonzero;"/>
            </g>
            <g transform="matrix(50,0,0,50,5702.31,1814.93)">
                <path d="M0.184,0.01C0.292,0.01 0.35,-0.054 0.35,-0.168C0.35,-0.255 0.321,-0.311 0.229,-0.392C0.157,-0.455 0.134,-0.492 0.134,-0.543C0.134,-0.591 0.154,-0.61 0.189,-0.61C0.224,-0.61 0.244,-0.591 0.244,-0.541L0.244,-0.505L0.348,-0.505L0.348,-0.534C0.348,-0.646 0.295,-0.71 0.188,-0.71C0.081,-0.71 0.024,-0.646 0.024,-0.536C0.024,-0.456 0.054,-0.399 0.146,-0.318C0.218,-0.255 0.24,-0.218 0.24,-0.16C0.24,-0.108 0.218,-0.09 0.183,-0.09C0.148,-0.09 0.126,-0.108 0.126,-0.158L0.126,-0.206L0.022,-0.206L0.022,-0.166C0.022,-0.054 0.076,0.01 0.184,0.01Z" style="fill-rule:nonzero;"/>
            </g>
            <g transform="matrix(50,0,0,50,5720.91,1814.93)">
                <rect x="0.041" y="-0.106" width="0.106" height="0.106" style="fill-rule:nonzero;"/>
            </g>
        </g>
    </g>
</svg>
