<?xml version="1.0" encoding="UTF-8" standalone="no"?>
<!DOCTYPE svg PUBLIC "-//W3C//DTD SVG 1.1//EN" "http://www.w3.org/Graphics/SVG/1.1/DTD/svg11.dtd">
<svg width="100%" height="100%" viewBox="0 0 892 800" version="1.1" xmlns="http://www.w3.org/2000/svg" xmlns:xlink="http://www.w3.org/1999/xlink" xml:space="preserve" xmlns:serif="http://www.serif.com/" style="fill-rule:evenodd;clip-rule:evenodd;stroke-linejoin:round;stroke-miterlimit:2;">
    <g transform="matrix(1.33333,0,0,1.33333,-274.004,-240.943)">
        <g transform="matrix(1,0,0,0.141414,-3759.21,0)">
            <g transform="matrix(8.55334,0,0,47.9289,-22683.9,677.758)">
                <path d="M3193.79,53.671L3193.79,59.829C3193.79,61.529 3192.7,62.908 3191.35,62.908L3118.02,62.908C3116.67,62.908 3115.58,61.529 3115.58,59.829L3115.58,53.671C3115.58,51.972 3116.67,50.592 3118.02,50.592L3191.35,50.592C3192.7,50.592 3193.79,51.972 3193.79,53.671Z" style="fill:white;"/>
            </g>
        </g>
        <g transform="matrix(1,0,0,0.141414,-3759.21,0)">
            <g transform="matrix(8.55334,0,0,47.9289,-22683.9,2502.47)">
                <path d="M3193.79,53.671L3193.79,59.829C3193.79,61.529 3192.7,62.908 3191.35,62.908L3118.02,62.908C3116.67,62.908 3115.58,61.529 3115.58,59.829L3115.58,53.671C3115.58,51.972 3116.67,50.592 3118.02,50.592L3191.35,50.592C3192.7,50.592 3193.79,51.972 3193.79,53.671Z" style="fill:white;"/>
            </g>
        </g>
        <g transform="matrix(1,0,0,0.141414,-3759.21,0)">
            <g transform="matrix(8.55334,0,0,47.9289,-22683.9,-1146.95)">
                <path d="M3193.79,53.671L3193.79,59.829C3193.79,61.529 3192.7,62.908 3191.35,62.908L3118.02,62.908C3116.67,62.908 3115.58,61.529 3115.58,59.829L3115.58,53.671C3115.58,51.972 3116.67,50.592 3118.02,50.592L3191.35,50.592C3192.7,50.592 3193.79,51.972 3193.79,53.671Z" style="fill:white;"/>
            </g>
        </g>
    </g>
</svg>
